<svg width="150" height="150" viewBox="0 0 150 150" fill="none" xmlns="http://www.w3.org/2000/svg">
<path d="M28.5725 108.337C6.58642 93.946 32.0203 66.0254 36.4007 41.8547C45.1507 14.1262 74.415 32.8944 121.927 62.6298C159.937 86.4181 140.159 85.0072 115.211 97.4227C74.0402 106.552 50.5585 122.728 28.5725 108.337Z" fill="#02A470" fill-opacity="0.1"/>
<path d="M75.2148 109.58V99.5127M75.2148 51.1905V41.1234M53.4621 63.2711L45.0134 58.3932M45.0134 92.3099L53.4621 87.4322M105.416 92.3099L96.9674 87.4322M96.9674 63.2711L105.416 58.3932M98.3393 52.1175L104.351 55.4989C106.252 56.5687 107.43 58.5812 107.43 60.7634V67.2979M107.43 83.4053V89.9397C107.43 92.1218 106.252 94.1344 104.351 95.2044L98.3393 98.5857M83.9897 106.658L78.1761 109.927C76.3374 110.962 74.0921 110.962 72.2534 109.927L66.4399 106.658M52.0902 98.5857L46.079 95.2044C44.177 94.1344 43 92.1218 43 89.9397V83.4053M43 67.2979V60.7634C43 58.5812 44.1759 56.5693 46.0779 55.4995L52.0902 52.1175M66.44 44.0458L72.2534 40.7757C74.0921 39.7414 76.3374 39.7414 78.1761 40.7757L83.9897 44.0458M75.2148 75.3516V83.4053M75.2148 75.3516L68.2399 71.3248M75.2148 75.3516L82.1897 71.3248" stroke="#02A470" stroke-width="6" stroke-linecap="round" stroke-linejoin="round"/>
</svg>
