<svg width="150" height="150" viewBox="0 0 150 150" fill="none" xmlns="http://www.w3.org/2000/svg">
<path d="M112.629 127.758C87.7843 147.719 77.8609 127.905 48.4962 127.287C13.773 122.167 16.646 97.3499 38.0549 35.4804C55.182 -14.0152 102.259 27.9918 123.657 55.1823C145.74 102.2 136.272 108.763 112.629 127.758Z" fill="#02A470" fill-opacity="0.1"/>
<path d="M86.6115 86.6084C80.1919 93.028 69.7839 93.028 63.3643 86.6084" stroke="#02A470" stroke-width="6" stroke-linecap="round" stroke-linejoin="round"/>
<path d="M86.2877 64.712H86.3287M87.315 64.712C87.315 65.2794 86.8552 65.7394 86.2877 65.7394C85.7201 65.7394 85.2603 65.2794 85.2603 64.712C85.2603 64.1446 85.7201 63.6846 86.2877 63.6846C86.8552 63.6846 87.315 64.1446 87.315 64.712Z" stroke="#02A470" stroke-width="6" stroke-linecap="round" stroke-linejoin="round"/>
<path d="M63.6851 64.712H63.7262M64.7125 64.712C64.7125 65.2794 64.2525 65.7394 63.6851 65.7394C63.1177 65.7394 62.6577 65.2794 62.6577 64.712C62.6577 64.1446 63.1177 63.6846 63.6851 63.6846C64.2525 63.6846 64.7125 64.1446 64.7125 64.712Z" stroke="#02A470" stroke-width="6" stroke-linecap="round" stroke-linejoin="round"/>
<path d="M111.973 74.9863C111.973 95.4134 95.4134 111.973 74.9863 111.973C54.5593 111.973 38 95.4134 38 74.9863C38 54.5593 54.5593 38 74.9863 38C95.4134 38 111.973 54.5593 111.973 74.9863Z" stroke="#02A470" stroke-width="6" stroke-linecap="round" stroke-linejoin="round"/>
</svg>
