<svg width="150" height="150" viewBox="0 0 150 150" fill="none" xmlns="http://www.w3.org/2000/svg">
<path d="M27.0017 98.047C3.55811 86.0873 3.1325 74.2217 11.4487 48.5654C25.2896 18.6304 72.0992 20.0829 122.945 44.5135C163.622 64.058 112.835 101.422 82.3577 117.661C33.5935 132.679 50.4454 110.007 27.0017 98.047Z" fill="#02A470" fill-opacity="0.1"/>
<path d="M40.7514 45.6523V56.8325C40.7514 58.8907 42.3042 60.5592 44.2196 60.5592H53.7572M89.3473 105.28V94.0996C89.3473 92.0413 87.7945 90.3728 85.879 90.3728H75.4744M37.2832 75.466C37.2832 91.9317 49.7054 105.28 65.0289 105.28C74.1718 105.28 82.475 100.528 87.5722 93.1969M92.7745 75.466C92.7745 59.0004 80.3525 45.6523 65.0289 45.6523C55.8859 45.6523 47.5827 50.4043 42.4855 57.7352" stroke="#02A470" stroke-width="6" stroke-linecap="round" stroke-linejoin="round"/>
</svg>
