<svg width="150" height="150" viewBox="0 0 150 150" fill="none" xmlns="http://www.w3.org/2000/svg">
<path d="M129.422 56.3614C141.586 79.6994 121.023 87.0041 113.25 112.83C100.044 143.051 78.0439 138.718 26.694 115.366C-14.386 96.6838 35.6004 58.2567 65.7287 41.3783C114.165 25.3348 117.846 34.1534 129.422 56.3614Z" fill="#02A470" fill-opacity="0.1"/>
<path d="M75 66.5384V78.6768M75 91H75.04M64.9289 48.7302L40.8061 88.4532C35.8958 96.5392 41.5762 107 50.8772 107H99.1228C108.424 107 114.104 96.5392 109.194 88.4532L85.0712 48.7302C80.4312 41.09 69.5688 41.09 64.9289 48.7302ZM76 91C76 91.5524 75.5524 92 75 92C74.4476 92 74 91.5524 74 91C74 90.4476 74.4476 90 75 90C75.5524 90 76 90.4476 76 91Z" stroke="#02A470" stroke-width="6" stroke-linecap="round"/>
</svg>
