<svg width="149" height="145" viewBox="0 0 149 145" fill="none" xmlns="http://www.w3.org/2000/svg">
<path d="M32.5725 108.337C10.5864 93.946 36.0203 66.0254 40.4007 41.8547C49.1507 14.1262 78.415 32.8944 125.927 62.6298C163.937 86.4181 144.159 85.0072 119.211 97.4227C78.0402 106.552 54.5585 122.728 32.5725 108.337Z" fill="#02A470" fill-opacity="0.1"/>
<path d="M79.2148 109.58V99.5127M79.2148 51.1905V41.1234M57.4621 63.2711L49.0134 58.3932M49.0134 92.3099L57.4621 87.4322M109.416 92.3099L100.967 87.4322M100.967 63.2711L109.416 58.3932M102.339 52.1175L108.351 55.4989C110.252 56.5687 111.43 58.5812 111.43 60.7634V67.2979M111.43 83.4053V89.9397C111.43 92.1218 110.252 94.1344 108.351 95.2044L102.339 98.5857M87.9897 106.658L82.1761 109.927C80.3374 110.962 78.0921 110.962 76.2534 109.927L70.4399 106.658M56.0902 98.5857L50.079 95.2044C48.177 94.1344 47 92.1218 47 89.9397V83.4053M47 67.2979V60.7634C47 58.5812 48.1759 56.5693 50.0779 55.4995L56.0902 52.1175M70.44 44.0458L76.2534 40.7757C78.0921 39.7414 80.3374 39.7414 82.1761 40.7757L87.9897 44.0458M79.2148 75.3516V83.4053M79.2148 75.3516L72.2399 71.3248M79.2148 75.3516L86.1897 71.3248" stroke="#02A470" stroke-width="6" stroke-linecap="round" stroke-linejoin="round"/>
</svg>
