<svg width="150" height="150" viewBox="0 0 150 150" fill="none" xmlns="http://www.w3.org/2000/svg">
<path d="M85.1342 69.0351L106.822 56.5134M103.101 82.4765L111.15 84.6333C105.79 104.638 85.2273 116.51 65.2223 111.15C45.2172 105.789 33.3455 85.2271 38.7058 65.2219C44.0661 45.217 64.6286 33.3451 84.6337 38.7054C88.8673 39.8398 92.7367 41.655 96.1555 44.0018M72.232 84.9894C66.6751 83.5004 63.3773 77.7885 64.8663 72.2316C66.3553 66.6747 72.0672 63.3769 77.6241 64.8659C83.1809 66.3549 86.4787 72.0668 84.9898 77.6237C83.5008 83.1806 77.7889 86.4783 72.232 84.9894Z" stroke="#02A470" stroke-width="6" stroke-linecap="round" stroke-linejoin="round"/>
<path d="M18.2522 73.1155C42.6313 48.1152 23.0264 35.7419 42.631 17.2153C68.6814 -1.86163 103.866 28.2043 130.309 81.9111C151.463 124.877 93.2233 128.122 61.4593 124.373C16.2869 108.278 -1.31312 93.1793 18.2522 73.1155Z" fill="#02A470" fill-opacity="0.1"/>
</svg>
