<?xml version="1.0" encoding="utf-8"?>
<!-- Generator: Adobe Illustrator 27.6.1, SVG Export Plug-In . SVG Version: 6.00 Build 0)  -->
<svg version="1.1" id="Layer_1" xmlns="http://www.w3.org/2000/svg" xmlns:xlink="http://www.w3.org/1999/xlink" x="0px" y="0px"
	 viewBox="0 0 322.89 101.06" style="enable-background:new 0 0 322.89 101.06;" xml:space="preserve">
<style type="text/css">
	.st0{fill:#02A470;}
</style>
<g>
	<g>
		<path class="st0" d="M272.48,2.99c-26.26,0-47.54,21.29-47.54,47.54c0,26.26,21.29,47.54,47.54,47.54
			c26.26,0,47.54-21.29,47.54-47.54C320.02,24.27,298.74,2.99,272.48,2.99z M258.06,69.79l-13.27,0.03l13.27-14.78
			C253.67,67.71,258.06,69.79,258.06,69.79z M273.65,69.82l-0.01-0.02l-5.61-0.01c0,0,3.34-1.85,1.95-4.88l-25.19-33.67h12.19
			l28.86,38.57H273.65z M272.56,46.03c4.39-12.67,0-14.75,0-14.75l13.27-0.03L272.56,46.03z M287.67,69.82
			c12.36-5.2,10.98-9.86,10.98-9.86l8.89,9.85L287.67,69.82z"/>
	</g>
	<g>
		<path d="M3.45,80.48h4.17V50.03l-4.75-4.09l21.44-7.51v42.04h4.17v1.33H3.45V80.48z M6.7,27.67c0-5.51,3.34-9.26,9.26-9.26
			s9.26,3.75,9.26,9.26c0,5.59-3.33,9.35-9.26,9.35S6.7,33.26,6.7,27.67z"/>
		<path d="M83.26,80.48v1.33H59.07v-1.33h3.34V55.37c0-6.51-1.59-8.68-5-8.68c-1.67,0-3.34,0.5-5,1.25v32.53h3.33v1.33H31.54v-1.33
			h4.17V50.03l-4.75-4.09l21.44-7.51v8.34c5.42-4.67,10.26-7.92,15.93-7.92c7.09,0,10.76,4.42,10.76,12.93v28.7H83.26z"/>
		<path d="M119.84,74.14c-3.09,4.92-8.59,8.51-16.27,8.51c-9.92,0-13.85-5.84-13.85-16.68V42.27h-6.42v-0.08l23.1-18.18v16.93h11.76
			v1.34h-11.76v19.44c0,9.67,2.25,13.26,8.43,13.26c1.83,0,3.25-0.25,4.92-0.92L119.84,74.14z"/>
		<path d="M157.44,39.44v22.11h-0.08c-8.68-9.6-12.59-11.76-15.51-11.26v30.2h6.25v1.33h-27.11v-1.33h4.17V50.2l-4.75-4.09
			l21.44-7.17v10.43c4.75-6.25,10.18-10.18,14.01-10.18C156.43,39.19,156.94,39.27,157.44,39.44z"/>
		<path d="M162.5,60.71c0-11.93,9.34-21.44,22.94-21.44c13.76,0,23.69,8.34,23.69,21.44c0,12.18-7.76,21.94-23.61,21.94
			C173.51,82.65,162.5,74.14,162.5,60.71z M198.28,75.39c0-7-14.01-33.11-21.35-33.11c-2.08,0-3.33,1.5-3.33,4.08
			c0,8.17,14.43,33.28,21.27,33.28C197.11,79.64,198.28,78.22,198.28,75.39z"/>
	</g>
</g>
</svg>
